<svg xmlns="http://www.w3.org/2000/svg" width="1200" height="224" viewBox="0 0 1200 224" xmlns:xlink="http://www.w3.org/1999/xlink"><defs><path id="a" d="M0 0h1200v224H0z"/><linearGradient id="b" x1="30.375%" x2="136.82%" y1="122.824%" y2="0%"><stop stop-color="#F36" offset="0%"/><stop stop-color="#FF339A" offset="100%"/></linearGradient><linearGradient id="e" x1="50%" x2="50%" y1="0%" y2="98.406%"><stop stop-color="#FFF" stop-opacity="0" offset="0%"/><stop stop-color="#FFF" offset="100%"/></linearGradient><path id="d" d="M0 0h1200v224H0z"/><linearGradient id="f" x1="50%" x2="50%" y1="-16.563%" y2="61.029%"><stop stop-color="#FE81CE" offset="0%"/><stop stop-color="#F36" offset="100%"/></linearGradient></defs><g fill="none" fill-rule="evenodd"><mask id="c" fill="#fff"><use xlink:href="#a"/></mask><use fill="#FFF" xlink:href="#a"/><path stroke="url(#b)" stroke-width="50" d="M947.018 169.982L837.33 279.67M375.02-78.02L265.33 31.67m43.69 138.31L199.33 279.67M982.02-78.02L872.33 31.67" stroke-linecap="round" opacity=".32" mask="url(#c)"/><mask id="g" fill="#fff"><use xlink:href="#d"/></mask><use fill="url(#e)" xlink:href="#d"/><path fill="url(#f)" d="M360 90.6v3.42h23.82l-16.32 39.42h3.96l16.2-39.78V90.6H360zm55.26 15.54v3.18h21.42c-1.08 4.32-2.4 7.92-4.08 10.8-3.84 6.42-10.32 11.94-19.38 16.62l2.1 2.64c9.54-5.04 16.32-11.04 20.4-18.12 1.74-3.12 3.18-7.02 4.26-11.76 4.2 13.08 12.66 23.04 25.5 29.88l1.98-2.64c-12.12-6.36-20.28-15.54-24.42-27.42h22.68v-3.18H440.7c.78-4.32 1.32-9.3 1.68-14.88h21.54v-3.12h-47.04v3.12h22.2c-.3 5.52-.9 10.44-1.74 14.88h-22.08zm58.86 2.04v2.76h6.06v21.48l-5.76.24.42 2.88c8.46-.48 15.66-1.02 21.6-1.74v5.58h3.12v-5.94c1.32-.24 2.58-.42 3.78-.6v-2.64c-1.2.18-2.46.36-3.78.6v-19.86h27.24v-2.76h-52.68zm9.12 24.06v-5.82h13.2v4.74c-3.96.42-8.4.78-13.2 1.08zm0-8.34v-5.22h13.2v5.22h-13.2zm0-7.74v-5.22h13.2v5.22h-13.2zM482.16 87v16.56h36.9V87h-36.9zm33.72 14.04h-30.66v-4.62h30.66v4.62zm-30.66-7.02v-4.5h30.66v4.5h-30.66zm19.92 24.42c1.2 4.56 3.66 8.64 7.26 12.3-2.7 2.34-5.94 4.32-9.78 6l1.68 2.52c4.08-1.74 7.5-3.9 10.38-6.48 2.76 2.28 6.24 4.44 10.44 6.42l1.68-2.64c-3.84-1.68-7.2-3.6-10.08-5.82 3.12-3.48 5.34-7.68 6.6-12.48v-2.64h-20.1v2.82h1.92zm9.3 10.32c-3.12-3-5.22-6.42-6.42-10.32h12.24c-1.2 3.84-3.12 7.26-5.82 10.32zm67.68-43.62c-11.88 1.8-27.12 2.7-45.72 2.76l.96 2.94c19.26 0 34.68-1.02 46.32-2.94l-1.56-2.76zm2.94 18.18h-11.94c2.1-2.76 4.2-6.18 6.24-10.38l-3.24-1.2c-1.74 4.14-3.9 7.98-6.42 11.58h-33.96v13.08h3.24v-9.96h42.84v9.96h3.24v-13.08zM543.36 93l-2.88 1.38c2.04 2.4 4.02 5.16 5.88 8.22l2.88-1.38c-1.86-3-3.84-5.7-5.88-8.22zm14.16-.84l-2.88 1.44c1.98 2.46 3.84 5.28 5.64 8.52l2.88-1.44c-1.74-3.12-3.6-5.94-5.64-8.52zm-14.88 21.12v3h2.76c2.4 4.92 6.54 9.18 12.42 12.9-6.36 2.94-14.22 5.34-23.64 7.14l1.68 3c10.02-2.1 18.36-4.86 25.08-8.34 6.24 3.36 14.22 6.18 24.06 8.4l1.86-2.88c-9-1.92-16.56-4.32-22.68-7.32 6.12-3.66 10.56-8.04 13.38-13.08v-2.82h-34.92zm6 3h25.32c-2.82 4.26-7.14 7.98-12.96 11.22-5.64-3.18-9.78-6.9-12.36-11.22zM624.42 84c-1.08 9.78-3.72 17.4-7.8 22.92l2.64 1.86c2.28-3 4.2-6.84 5.64-11.4H642c-.96 4.92-2.22 9.42-3.78 13.44l3.24.9c1.62-4.98 2.94-10.08 3.9-15.36V94.2h-19.5c.72-2.94 1.32-6.18 1.8-9.66l-3.24-.54zm-10.32 45.3l2.4-2.34c-2.64-3.9-5.16-7.5-7.56-10.8 2.4-6.12 4.2-13.2 5.46-21.36v-3h-20.46v3.12h17.28c-.96 6.9-2.4 13.08-4.32 18.48-3.72-4.92-7.2-9-10.32-12.24l-2.22 2.1c3.6 3.9 7.32 8.46 11.16 13.62-3.12 7.14-7.32 12.72-12.48 16.8l1.62 2.82c5.16-4.02 9.48-9.66 12.84-16.92 2.16 3 4.32 6.24 6.6 9.72zm15.78-27.18c0 7.8-.9 14.28-2.58 19.44-2.28 6.06-6.72 11.04-13.44 15l2.1 2.52c7.56-4.44 12.48-10.2 14.64-17.28.24-.96.54-1.98.78-3 3 8.04 7.68 14.82 13.92 20.28l2.22-2.58c-7.14-5.76-12.18-13.5-15.12-23.22.42-3.36.66-7.08.66-11.16h-3.18zm27.96-16.68l-2.22 2.1c4.14 3.3 7.44 6.42 9.84 9.3l2.22-2.22c-2.64-3.06-5.94-6.12-9.84-9.18zm36.3 52.74h12.96l.72-3.24c-1.44.06-3.48.12-6.18.24-2.7 0-5.34.06-7.92.06-4.92 0-8.94-.06-12.12-.12-3.72-.12-6.54-.6-8.58-1.32-1.86-.84-3.6-2.16-5.16-3.96-.72-.84-1.38-1.38-2.04-1.68v-22.44h-12.06v3h9v19.32c-2.52.84-5.52 4.02-9 9.54l2.34 2.16c3.72-5.94 6.42-8.88 8.1-8.88.78 0 1.56.48 2.4 1.56 2.04 2.28 4.26 3.72 6.72 4.44 2.4.72 5.64 1.08 9.72 1.2 3.96.06 7.68.12 11.1.12zm-21.48-11.76c5.34-1.32 10.02-2.64 13.98-3.84l-.6-3.12c-3.24 1.08-6.6 2.1-10.08 3V92.34c4.68-1.44 8.28-3 10.92-4.74l-1.86-2.7c-2.88 1.92-6.9 3.72-12.06 5.28v31.62c0 .84-.42 1.38-1.14 1.74l.84 2.88zm28.14-1.74c2.88 0 4.32-1.5 4.32-4.44V88.56h-15.78v43.92h3.12V91.5H702v28.14c0 1.32-.78 2.04-2.28 2.04l-4.38-.12.9 3.12h4.56zm56.416 5.127h-21.152V91.165h-4.014v42.275h25.166v-3.633zm7.91 3.633h3.838v-31.553h-3.837v31.553zm1.905-38.584c1.586 0 2.875-1.29 2.875-2.87 0-1.554-1.29-2.843-2.87-2.843-1.554 0-2.843 1.29-2.843 2.842 0 1.582 1.29 2.87 2.84 2.87zm8.998 7.03l11.777 31.554h4.102l11.777-31.553h-4.13l-9.52 27.364h-.353l-9.55-27.36h-4.102zm47.05 2.872c5.714 0 9.493 4.248 9.58 10.752H813c.35-6.504 4.336-10.752 10.078-10.752zm9.2 20.89c-1.348 3.105-4.57 4.892-9.053 4.892-6.093 0-10.05-4.57-10.254-11.69v-.176h23.7v-1.7c0-9.638-5.155-15.614-13.563-15.614-8.584 0-14.092 6.416-14.092 16.318 0 9.96 5.45 16.29 14.12 16.29 6.622 0 11.486-3.194 13.038-8.32h-3.895z" mask="url(#g)"/></g></svg>